# xmcd
#
# Track frame offsets: 
#        150
#        62013
#        91182
#        138515
#        149511
#        160867
#        174787
#        210409
#        228872
#        258448
#        276076
#        309458
#
# Disc length: 4606 seconds
#
# Revision: 0
# Processed by: cddbd v1.5.2PL0 Copyright (c) Steve Scherf et al.
# Submitted via: ExactAudioCopy v1.0b3
#
DISCID=9e11fc0c
DTITLE=Wilhelm Backhaus - Wilhelm Backhaus - The Virtuoso
DYEAR=2012
DGENRE=Classical
TTITLE0=Mozart - Piano Concerto No. 26 - I. Allegro
TTITLE1=Mozart - Piano Concerto No. 26 - II. Larghetto
TTITLE2=Mozart - Piano Concerto No. 26 - III. Allegretto
TTITLE3=Mozart-Backhaus - Don Giovanni (Exc.)
TTITLE4=Strauss-Backhaus - Lieder, Op. 17 No. 2 - Standchen
TTITLE5=Pickmangiagalli - Olaf's Dance
TTITLE6=Chopin-Backhaus - Piano Concerto No. 1 - II. Romanze
TTITLE7=Kreisler-Rachmaninoff - Liebeslied
TTITLE8=Delibes-Dohnanyi - Naila - Waltz
TTITLE9=Liszt - Etudes de Concert - La Leggierezza
TTITLE10=Liszt - Paraphrase on Wedding March (Mendelssohn)
TTITLE11=Brahms - Paganini Variations (Exc)
EXTD=
EXTT0=
EXTT1=
EXTT2=
EXTT3=
EXTT4=
EXTT5=
EXTT6=
EXTT7=
EXTT8=
EXTT9=
EXTT10=
EXTT11=
PLAYORDER=
